# xmcd
#
# Track frame offsets:
#	150
#	29180
#	45830
#	67170
#	91478
#	119479
#	152619
#	175727
#
# Disc length: 2931 seconds
#
# Revision: 1
# Processed by: cddbd v1.5.1PL2 Copyright (c) Steve Scherf et al.
# Submitted via: EasyCDDAExtractor 9.0.0.1
#
DISCID=680b7108
DTITLE=Blue Oyster Cult - International Amphitheatre Chicago 12-10-79 Disc 1
DYEAR=1979
DGENRE=Hard Rock
TTITLE0=Dominance and Submission 
TTITLE1=Dr Music 
TTITLE2=Mirrors
TTITLE3=Cities On Flame 
TTITLE4=The Great Sun Jester 
TTITLE5=The Vigil 
TTITLE6=ETI
TTITLE7=Astronomy 
EXTD=
EXTT0=
EXTT1=
EXTT2=
EXTT3=
EXTT4=
EXTT5=
EXTT6=
EXTT7=
PLAYORDER=
